<?xml version="1.0" encoding="UTF-8" standalone="no"?>
<!-- Created with Inkscape (http://www.inkscape.org/) -->

<svg
   width="55.915241mm"
   height="56.795113mm"
   viewBox="0 0 55.915241 56.795113"
   version="1.1"
   id="svg1"
   xml:space="preserve"
   inkscape:export-filename="tomato.svg"
   inkscape:export-xdpi="96"
   inkscape:export-ydpi="96"
   xmlns:inkscape="http://www.inkscape.org/namespaces/inkscape"
   xmlns:sodipodi="http://sodipodi.sourceforge.net/DTD/sodipodi-0.dtd"
   xmlns="http://www.w3.org/2000/svg"
   xmlns:svg="http://www.w3.org/2000/svg"><sodipodi:namedview
     id="namedview1"
     pagecolor="#ffffff"
     bordercolor="#000000"
     borderopacity="0.25"
     inkscape:showpageshadow="2"
     inkscape:pageopacity="0.0"
     inkscape:pagecheckerboard="0"
     inkscape:deskcolor="#d1d1d1"
     inkscape:document-units="mm" /><defs
     id="defs1" /><g
     inkscape:label="Ebene 1"
     inkscape:groupmode="layer"
     id="layer1"
     transform="translate(-0.20288569,-0.11799882)"><g
       id="g6"
       transform="translate(-0.47474425,-0.61716752)"><path
         style="display:inline;fill:#a6ca9c"
         d="m 17.73939,21.403727 c 0,-0.08214 0.848322,-1.715014 1.88516,-3.628618 1.036838,-1.913605 1.936739,-3.568426 1.999779,-3.677379 0.06304,-0.108954 -0.78495,-0.608045 -1.884424,-1.109091 L 17.740861,12.077645 13.176063,13.992453 8.5797937,16.192602 8.9247084,8.3940038 C 9.1074508,4.2621569 9.3022073,0.81669085 9.3804973,0.73840085 c 0.07829,-0.07829 1.6636467,1.27432775 3.5230147,3.00581715 1.859368,1.7314894 3.943556,3.6530787 4.631529,4.2701985 1.250859,1.1220358 1.250859,1.1220358 4.017586,1.1220358 h 2.766726 l 2.067831,-3.8361377 c 1.137307,-2.1098758 2.127362,-3.8361378 2.200123,-3.8361378 0.07276,0 1.062815,1.726262 2.200122,3.8361378 l 2.067831,3.8361377 h 2.9105 c 1.611836,0 3.153301,-0.1299425 3.454651,-0.2912203 0.299283,-0.1601711 2.806174,-1.8920155 5.570869,-3.8485431 2.764695,-1.9565275 5.07826,-3.5057806 5.141256,-3.4427846 0.063,0.062996 -0.191385,3.4238779 -0.56529,7.4686263 -0.373906,4.0447484 -0.730791,7.4050514 -0.793079,7.4673384 -0.06229,0.06229 -2.000428,-0.973913 -4.306978,-2.302669 l -4.193727,-2.415919 -2.237349,0.986447 c -1.230541,0.542546 -2.28291,1.017225 -2.338598,1.054842 -0.05569,0.03762 0.809783,1.756894 1.923267,3.820615 1.113483,2.063721 1.992483,3.781671 1.953333,3.817665 -0.03915,0.03599 -2.490474,-0.987604 -5.447386,-2.274665 l -5.376202,-2.340111 -4.281089,1.869334 c -2.354599,1.028134 -4.787105,2.089456 -5.405569,2.358495 -0.618463,0.269038 -1.124479,0.421959 -1.124479,0.339824 z"
         id="path7"
         inkscape:label="path7"
         sodipodi:nodetypes="sssscccssssscssscssssssscssssscsss" /><path
         style="display:inline;fill:#da6444"
         d="M 23.560223,57.151272 C 22.323296,56.957301 20.299234,56.478442 19.062307,56.087142 17.82538,55.695841 15.860848,54.897522 14.696682,54.313098 13.532515,53.728674 11.925171,52.802884 11.124807,52.255786 10.324442,51.708688 8.9335355,50.59097 8.0339032,49.771969 7.1342708,48.952967 5.8407697,47.541414 5.1594562,46.635184 4.4781427,45.728954 3.4687179,44.088651 2.9162899,42.990067 2.363862,41.891483 1.5269496,40.13337 1.2928203,39.021317 0.89098083,37.112684 0.70188264,34.571232 0.68181897,33.081243 0.65553763,31.129511 0.73098667,28.992736 1.5527971,26.598952 2.0274054,25.216504 2.9762812,23.14352 3.6614099,21.992321 4.3465386,20.841122 5.8000672,18.96626 6.8914734,17.82596 c 1.984375,-2.073271 1.984375,-2.073271 6.4199576,-3.909391 l 4.435582,-1.83612 1.995968,0.909592 c 1.097783,0.500275 1.944389,0.998735 1.881348,1.107689 -0.06304,0.108953 -0.974125,1.784335 -2.024632,3.72307 -1.050507,1.938736 -1.869064,3.561361 -1.819014,3.605834 0.05005,0.04447 2.492378,-0.970801 5.427397,-2.256165 l 5.336398,-2.337024 5.379227,2.341425 c 2.958574,1.287784 5.411259,2.311975 5.45041,2.27598 0.03915,-0.03599 -0.83985,-1.753944 -1.953333,-3.817665 -1.113484,-2.063721 -1.978954,-3.782998 -1.923267,-3.820615 0.05569,-0.03762 1.108057,-0.512296 2.338598,-1.054842 l 2.237349,-0.986447 4.17465,2.40493 c 2.296058,1.322711 4.275857,2.342381 4.399552,2.265933 0.123696,-0.07645 0.704483,0.361856 1.290638,0.97401 0.586155,0.612154 1.565,1.757153 2.17521,2.544443 0.610211,0.787291 1.627598,2.513697 2.260862,3.836459 0.633263,1.322761 1.34578,3.178927 1.583371,4.124813 0.237591,0.945885 0.504006,2.755889 0.592033,4.022231 0.09624,1.384525 0.02792,3.124972 -0.171363,4.365625 -0.182276,1.134752 -0.675829,3.008841 -1.096784,4.164643 -0.420955,1.155801 -1.23857,2.897966 -1.816922,3.871477 -0.578353,0.97351 -1.659824,2.497986 -2.403271,3.387724 -0.743447,0.889737 -2.290953,2.369182 -3.438902,3.287655 -1.147949,0.918472 -3.132288,2.216377 -4.409642,2.884231 -1.277354,0.667855 -3.209813,1.530287 -4.294353,1.916516 -1.08454,0.386229 -3.328793,0.934208 -4.98723,1.217732 -1.708067,0.292009 -4.122339,0.504388 -5.568734,0.489872 -1.404368,-0.0141 -3.565427,-0.184331 -4.802354,-0.378303 z"
         id="path6"
         sodipodi:nodetypes="ssssssssssssscssssscssssscsssssssssssssssss" /></g></g></svg>
